<svg xmlns="http://www.w3.org/2000/svg" viewBox="0 0 5370 700" width="214.8" height="28"><title>Coriolis</title><path fill="#FFFFFF" fill-rule="evenodd" d="M100 700L0 600V100L100 0H645L745 100V300H545V200H200V500H720V700ZM935 700L835 600V100L935 0H1505L1605 100V600L1505 700ZM1405 200H1035V500H1405ZM2202 700L2052 550H1925V700H1725V250H1925V350H2195V200H1650V0H2295L2395 100V450L2295 550L2445 700ZM2495 700V0H2695V700ZM2885 700L2785 600V100L2885 0H3455L3555 100V600L3455 700ZM3355 200H2985V500H3355ZM3675 700V200H3600V0H3875V500H4325V700ZM4375 700V0H4575V700ZM4665 700V500H5170V450H4765L4665 350V100L4765 0H5370V200H4865V250H5270L5370 350V600L5270 700Z"/></svg>
